<svg width="308" height="110" viewBox="0 0 308 110" fill="none" xmlns="http://www.w3.org/2000/svg">
<g id="Group 7">
<g id="Group 1">
<g id="Readify">
<path d="M111.7 69C111.033 69 110.7 68.6667 110.7 68V32.5C110.7 31.8333 111.033 31.5 111.7 31.5H125.7C134.9 31.5 139.5 35.5917 139.5 43.775C139.5 46.525 138.983 48.875 137.95 50.825C136.933 52.7583 135.45 54.2083 133.5 55.175L140.25 67.8C140.417 68.15 140.433 68.4417 140.3 68.675C140.167 68.8917 139.908 69 139.525 69H132.075C131.558 69 131.175 68.75 130.925 68.25L125.025 56.5H119.275V68C119.275 68.6667 118.942 69 118.275 69H111.7ZM119.275 49.125H124.35C124.733 49.125 125.05 49.125 125.3 49.125C125.567 49.1083 125.95 49.0667 126.45 49C126.967 48.9333 127.4 48.8417 127.75 48.725C128.117 48.5917 128.517 48.3917 128.95 48.125C129.4 47.8583 129.758 47.55 130.025 47.2C130.292 46.8333 130.517 46.3667 130.7 45.8C130.9 45.2167 131 44.5667 131 43.85C131 43.1667 130.908 42.5583 130.725 42.025C130.558 41.475 130.35 41.0333 130.1 40.7C129.85 40.35 129.517 40.0583 129.1 39.825C128.683 39.575 128.3 39.3917 127.95 39.275C127.617 39.1583 127.192 39.0667 126.675 39C126.158 38.9333 125.758 38.9 125.475 38.9C125.192 38.8833 124.817 38.875 124.35 38.875H119.275V49.125ZM158.431 69.575C156.498 69.575 154.681 69.25 152.981 68.6C151.281 67.95 149.79 67.0333 148.506 65.85C147.24 64.65 146.24 63.1583 145.506 61.375C144.773 59.575 144.406 57.6 144.406 55.45C144.406 51.1833 145.673 47.7667 148.206 45.2C150.756 42.6167 154.023 41.325 158.006 41.325C161.973 41.325 165.173 42.6 167.606 45.15C170.04 47.6833 171.256 51.0833 171.256 55.35C171.256 55.8167 171.173 56.15 171.006 56.35C170.84 56.5333 170.54 56.625 170.106 56.625H151.906C151.973 58.625 152.656 60.175 153.956 61.275C155.256 62.375 156.823 62.925 158.656 62.925C161.006 62.925 163.24 62.0917 165.356 60.425C165.856 60.0583 166.298 60.0917 166.681 60.525L169.606 64.2C170.09 64.65 170.006 65.125 169.356 65.625C166.073 68.2583 162.431 69.575 158.431 69.575ZM152.381 51.575H163.381C163.098 50.1417 162.473 49.0917 161.506 48.425C160.54 47.7583 159.431 47.425 158.181 47.425C156.915 47.425 155.723 47.7667 154.606 48.45C153.506 49.1167 152.765 50.1583 152.381 51.575ZM194.581 69C193.998 69 193.631 68.7167 193.481 68.15L192.756 65.875C190.873 68.3417 188.248 69.575 184.881 69.575C183.215 69.575 181.698 69.2667 180.331 68.65C178.965 68.0333 177.84 67.0667 176.956 65.75C176.073 64.4333 175.631 62.875 175.631 61.075C175.631 58.325 176.631 56.2 178.631 54.7C180.631 53.1833 183.173 52.425 186.256 52.425C187.99 52.425 189.756 52.675 191.556 53.175V51.825C191.556 50.3417 191.098 49.2583 190.181 48.575C189.265 47.8917 188.031 47.55 186.481 47.55C184.515 47.55 182.273 48.0417 179.756 49.025C179.106 49.2917 178.681 49.1083 178.481 48.475L177.106 44.125C176.906 43.4917 177.123 43.075 177.756 42.875C180.956 41.8417 184.081 41.325 187.131 41.325C188.865 41.325 190.44 41.5167 191.856 41.9C193.29 42.2667 194.573 42.8417 195.706 43.625C196.856 44.3917 197.748 45.4583 198.381 46.825C199.031 48.175 199.356 49.7583 199.356 51.575V68C199.356 68.6667 199.023 69 198.356 69H194.581ZM183.406 61C183.406 62.0333 183.748 62.8167 184.431 63.35C185.131 63.8833 185.99 64.15 187.006 64.15C187.523 64.15 188.031 64.0667 188.531 63.9C189.031 63.7333 189.515 63.475 189.981 63.125C190.465 62.775 190.848 62.275 191.131 61.625C191.415 60.9583 191.556 60.1917 191.556 59.325V58.05C190.306 57.75 189.19 57.6 188.206 57.6C186.773 57.6 185.615 57.875 184.731 58.425C183.848 58.975 183.406 59.8333 183.406 61ZM218.234 69.575C215.684 69.575 213.367 68.9417 211.284 67.675C209.201 66.4083 207.576 64.7 206.409 62.55C205.259 60.3833 204.684 58.0167 204.684 55.45C204.684 52.8833 205.259 50.525 206.409 48.375C207.576 46.2083 209.201 44.4917 211.284 43.225C213.367 41.9583 215.684 41.325 218.234 41.325C221.467 41.325 224.342 42.3417 226.859 44.375L226.834 32.5C226.834 31.8333 227.167 31.5 227.834 31.5H233.634C234.301 31.5 234.634 31.8333 234.634 32.5L234.684 68C234.684 68.6667 234.351 69 233.684 69H229.909C229.359 69 228.992 68.7167 228.809 68.15L227.909 65.35C226.726 66.7 225.301 67.7417 223.634 68.475C221.967 69.2083 220.167 69.575 218.234 69.575ZM214.634 50.25C213.201 51.6833 212.484 53.4167 212.484 55.45C212.484 57.4833 213.201 59.225 214.634 60.675C216.084 62.1083 217.826 62.825 219.859 62.825C221.892 62.825 223.626 62.1083 225.059 60.675C226.492 59.225 227.209 57.4833 227.209 55.45C227.209 53.4167 226.492 51.6833 225.059 50.25C223.626 48.8 221.892 48.075 219.859 48.075C217.826 48.075 216.084 48.8 214.634 50.25ZM242.504 69C241.837 69 241.504 68.6667 241.504 68V42.9C241.504 42.2333 241.837 41.9 242.504 41.9H248.304C248.97 41.9 249.304 42.2333 249.304 42.9V68C249.304 68.6667 248.97 69 248.304 69H242.504ZM242.204 38.65C241.354 37.8 240.929 36.7417 240.929 35.475C240.929 34.2083 241.354 33.15 242.204 32.3C243.07 31.4333 244.12 31 245.354 31C246.62 31 247.679 31.4333 248.529 32.3C249.395 33.15 249.829 34.2083 249.829 35.475C249.829 36.7417 249.404 37.8 248.554 38.65C247.704 39.5 246.637 39.925 245.354 39.925C244.104 39.925 243.054 39.5 242.204 38.65Z" fill="#1B2B3A"/>
<path d="M258.427 69C257.76 69 257.427 68.6667 257.427 68V48.025H255.727C255.06 48.025 254.727 47.6917 254.727 47.025V42.9C254.727 42.2333 255.06 41.9 255.727 41.9H257.427V41.075C257.427 37.6583 258.319 35.1167 260.102 33.45C261.902 31.7667 264.435 30.925 267.702 30.925C268.835 30.925 269.994 31.0333 271.177 31.25C271.777 31.4 272.027 31.8 271.927 32.45L271.152 36.325C271.035 36.9417 270.669 37.2 270.052 37.1C269.435 36.9667 268.894 36.9 268.427 36.9C267.427 36.9 266.644 37.1417 266.077 37.625C265.51 38.0917 265.227 38.8083 265.227 39.775V41.9H268.802C269.469 41.9 269.802 42.2333 269.802 42.9V47.025C269.802 47.6917 269.469 48.025 268.802 48.025H265.227V68C265.227 68.6667 264.894 69 264.227 69H258.427ZM276.054 80.175C275.688 80.175 275.429 80.0583 275.279 79.825C275.146 79.6083 275.163 79.325 275.329 78.975L282.854 63.925L272.529 43.1C272.363 42.75 272.346 42.4667 272.479 42.25C272.613 42.0167 272.871 41.9 273.254 41.9H279.429C279.946 41.9 280.329 42.15 280.579 42.65L286.829 55.575L292.579 42.65C292.796 42.15 293.188 41.9 293.754 41.9H300.004C300.371 41.9 300.621 42.0083 300.754 42.225C300.904 42.4417 300.896 42.725 300.729 43.075L283.204 79.425C282.954 79.925 282.554 80.175 282.004 80.175H276.054Z" fill="#00FFF8"/>
</g>
</g>
<g id="Group 6">
<g id="READIFY (1) 2">
<g id="4a00402f70">
<g id="Clip path group">
<mask id="mask0_121_226" style="mask-type:luminance" maskUnits="userSpaceOnUse" x="35" y="21" width="57" height="67">
<g id="6001d7cb05">
<path id="Vector" d="M35.9155 21.4673H91.4052V87.4456H35.9155V21.4673Z" fill="white"/>
</g>
</mask>
<g mask="url(#mask0_121_226)">
<g id="Group">
<g id="Clip path group_2">
<mask id="mask1_121_226" style="mask-type:luminance" maskUnits="userSpaceOnUse" x="35" y="21" width="57" height="67">
<g id="c78e65786d">
<path id="Vector_2" d="M63.6611 21.4673C48.3372 21.4673 35.9155 36.2032 35.9155 54.3801C35.9155 72.5585 48.3372 87.2943 63.6611 87.2943C78.9836 87.2943 91.4052 72.5585 91.4052 54.3801C91.4052 36.2032 78.9836 21.4673 63.6611 21.4673Z" fill="white"/>
</g>
</mask>
<g mask="url(#mask1_121_226)">
<g id="Group_2">
<path id="Vector_3" d="M35.9155 21.4673H91.4052V87.2329H35.9155V21.4673Z" fill="#00FFF8"/>
</g>
</g>
</g>
</g>
</g>
</g>
<g id="Clip path group_3">
<mask id="mask2_121_226" style="mask-type:luminance" maskUnits="userSpaceOnUse" x="35" y="21" width="57" height="67">
<g id="eea251b499">
<path id="Vector_4" d="M35.9155 21.4688H91.2583V87.0503H35.9155V21.4688Z" fill="white"/>
</g>
</mask>
<g mask="url(#mask2_121_226)">
<g id="Group_3">
<g id="Clip path group_4">
<mask id="mask3_121_226" style="mask-type:luminance" maskUnits="userSpaceOnUse" x="35" y="21" width="57" height="67">
<g id="b68f9a411e">
<path id="Vector_5" d="M63.5571 21.4688C48.2913 21.4688 35.9155 36.1493 35.9155 54.2588C35.9155 72.3683 48.2913 87.0488 63.5571 87.0488C78.8229 87.0488 91.1987 72.3683 91.1987 54.2588C91.1987 36.1493 78.8229 21.4688 63.5571 21.4688Z" fill="white"/>
</g>
</mask>
<g mask="url(#mask3_121_226)">
<g id="Group_4">
<path id="Vector (Stroke)" d="M86.8083 54.2587C86.8082 37.7122 75.646 25.7656 63.557 25.7656C51.468 25.7656 40.3057 37.7123 40.3057 54.2587C40.3057 70.8051 51.468 82.7517 63.557 82.7518C75.646 82.7518 86.8083 70.8052 86.8083 54.2587ZM95.5889 54.2587C95.5889 73.9312 81.9996 91.3456 63.557 91.3456C45.1144 91.3456 31.5253 73.9312 31.5253 54.2587C31.5254 34.5862 45.1144 17.1721 63.557 17.172C81.9996 17.172 95.5889 34.5862 95.5889 54.2587Z" fill="#1B2B3A"/>
</g>
</g>
</g>
</g>
</g>
</g>
<g id="Clip path group_5">
<mask id="mask4_121_226" style="mask-type:luminance" maskUnits="userSpaceOnUse" x="2" y="21" width="56" height="67">
<g id="7f6aa6724a">
<path id="Vector_6" d="M2.68201 21.4673H57.1221V87.4456H2.68201V21.4673Z" fill="white"/>
</g>
</mask>
<g mask="url(#mask4_121_226)">
<g id="Group_5">
<g id="Clip path group_6">
<mask id="mask5_121_226" style="mask-type:luminance" maskUnits="userSpaceOnUse" x="2" y="21" width="56" height="67">
<g id="6369543b5e">
<path id="Vector_7" d="M29.9028 21.4673C14.8696 21.4673 2.68201 36.2032 2.68201 54.3801C2.68201 72.5585 14.8696 87.2943 29.9028 87.2943C44.9361 87.2943 57.1221 72.5585 57.1221 54.3801C57.1221 36.2032 44.9361 21.4673 29.9028 21.4673Z" fill="white"/>
</g>
</mask>
<g mask="url(#mask5_121_226)">
<g id="Group_6">
<path id="Vector_8" d="M2.68201 21.4673H57.1221V87.2374H2.68201V21.4673Z" fill="#00FFF8"/>
</g>
</g>
</g>
</g>
</g>
</g>
<g id="Clip path group_7">
<mask id="mask6_121_226" style="mask-type:luminance" maskUnits="userSpaceOnUse" x="2" y="21" width="56" height="67">
<g id="fba7cec08d">
<path id="Vector_9" d="M2.68201 21.4673H57.0961V87.0503H2.68201V21.4673Z" fill="white"/>
</g>
</mask>
<g mask="url(#mask6_121_226)">
<g id="Group_7">
<g id="Clip path group_8">
<mask id="mask7_121_226" style="mask-type:luminance" maskUnits="userSpaceOnUse" x="2" y="21" width="55" height="67">
<g id="5c164d5301">
<path id="Vector_10" d="M29.8019 21.4673C14.8237 21.4673 2.68201 36.1478 2.68201 54.2588C2.68201 72.3698 14.8237 87.0503 29.8019 87.0503C44.7801 87.0503 56.9217 72.3698 56.9217 54.2588C56.9217 36.1478 44.7801 21.4673 29.8019 21.4673Z" fill="white"/>
</g>
</mask>
<g mask="url(#mask7_121_226)">
<g id="Group_8">
<path id="Vector (Stroke)_2" d="M52.5314 54.2589C52.5314 37.6279 41.534 25.7642 29.8019 25.7641C18.0699 25.7641 7.07218 37.6279 7.07218 54.2589C7.07223 70.8898 18.0699 82.7534 29.8019 82.7534C41.5339 82.7533 52.5314 70.8898 52.5314 54.2589ZM61.3121 54.2589C61.312 73.8498 48.0262 91.3472 29.8019 91.3472C11.5777 91.3472 -1.70814 73.8498 -1.70819 54.2589C-1.70819 34.6679 11.5776 17.1705 29.8019 17.1705C48.0262 17.1706 61.3121 34.6679 61.3121 54.2589Z" fill="#1B2B3A"/>
</g>
</g>
</g>
</g>
</g>
</g>
<g id="Clip path group_9">
<mask id="mask8_121_226" style="mask-type:luminance" maskUnits="userSpaceOnUse" x="30" y="36" width="34" height="65">
<g id="a69ac80d41">
<path id="Vector_11" d="M30.7933 36.1433H63.7208V100.594H30.7933V36.1433Z" fill="white"/>
</g>
</mask>
<g mask="url(#mask8_121_226)">
<g id="Group_9">
<g id="Clip path group_10">
<mask id="mask9_121_226" style="mask-type:luminance" maskUnits="userSpaceOnUse" x="30" y="36" width="34" height="65">
<g id="7e7ff689dc">
<path id="Vector_12" d="M63.7208 36.1433V84.4822L47.257 100.594L30.7933 84.4822V36.1433L47.257 52.2568L63.7208 36.1433Z" fill="white"/>
</g>
</mask>
<g mask="url(#mask9_121_226)">
<g id="Group_10">
<path id="Vector_13" d="M63.7208 36.1433V100.594H30.7933V36.1433H63.7208Z" fill="#00FFF8"/>
</g>
</g>
</g>
</g>
</g>
</g>
<g id="Clip path group_11">
<mask id="mask10_121_226" style="mask-type:luminance" maskUnits="userSpaceOnUse" x="30" y="36" width="34" height="65">
<g id="d37d27e4ec">
<path id="Vector_14" d="M30.9707 36.1463H63.7208V100.251H30.9707V36.1463Z" fill="white"/>
</g>
</mask>
<g mask="url(#mask10_121_226)">
<g id="Group_11">
<g id="Clip path group_12">
<mask id="mask11_121_226" style="mask-type:luminance" maskUnits="userSpaceOnUse" x="30" y="36" width="34" height="65">
<g id="221533cb29">
<path id="Vector_15" d="M63.7208 36.1463V84.2262L47.3457 100.251L30.9707 84.2262V36.1463L47.3457 52.1729L63.7208 36.1463Z" fill="white"/>
</g>
</mask>
<g mask="url(#mask11_121_226)">
<g id="Group_12">
<path id="Vector (Stroke)_3" d="M68.1038 86.0031L47.3457 106.318L26.5875 86.0031V25.7898L47.346 46.106L68.1038 25.7898V86.0031ZM47.3457 58.2397L35.3538 46.5027V82.4492L47.346 94.1848L59.3378 82.4489V46.5027L47.3457 58.2397Z" fill="#1B2B3A"/>
</g>
</g>
</g>
</g>
</g>
</g>
<path id="Vector_16" d="M46.5869 34.5066C73.4788 -2.26641 114.996 64.0353 47.3045 71.5702C-23.5168 65.1658 18.8214 -2.26641 46.5869 34.5066Z" fill="white"/>
<g id="Clip path group_13">
<mask id="mask12_121_226" style="mask-type:luminance" maskUnits="userSpaceOnUse" x="6" y="21" width="81" height="54">
<g id="b3921d5539">
<path id="Vector_17" d="M6.11981 21.4673H86.2279V74.2296H6.11981V21.4673Z" fill="white"/>
</g>
</mask>
<g mask="url(#mask12_121_226)">
<g id="Group_13">
<path id="Vector (Stroke)_4" d="M46.5628 31.4294C53.2532 23.3457 60.9166 20.6432 67.9033 21.8706C75.2903 23.1683 81.3628 28.7769 84.2012 35.7236C87.0619 42.725 86.7255 51.2816 81.0629 58.5692C75.4256 65.8241 64.7467 71.5244 47.5221 73.4417L47.325 73.4636L47.1273 73.4456C29.1381 71.8189 17.9245 66.2822 11.9204 59.0984C5.87784 51.8687 5.35692 43.2568 8.1825 36.1627C10.9844 29.128 17.1474 23.4229 24.6692 22.0328C31.784 20.718 39.6537 23.3361 46.5628 31.4294ZM67.2231 25.5786C61.52 24.5767 54.5616 26.8381 48.152 35.6029L46.6118 37.7089L45.0392 35.6262C38.4256 26.867 31.2573 24.6488 25.3832 25.7344C19.3708 26.8456 14.1696 31.5037 11.7689 37.5309C9.39189 43.4987 9.82996 50.6475 14.8997 56.7134C19.9885 62.8019 29.9838 68.0783 47.2831 69.6758C63.7825 67.8051 73.2419 62.4112 77.9992 56.2888C82.7499 50.1749 83.046 43.0417 80.6274 37.1224C78.1866 31.1485 73.0684 26.6055 67.2231 25.5786Z" fill="#1B2B3A"/>
</g>
</g>
</g>
<path id="Vector_18" d="M29.7605 18.0263C11.1579 6.64759 8.05671 8.16445 4.95703 42.6824V44.1993C4.95703 44.1993 6.50687 49.8894 6.50687 42.6824C6.50687 35.4755 25.4981 11.9574 47.589 33.5783C65.0289 16.8883 82.8574 28.2685 87.5069 43.0613C85.9571 20.3023 89.4453 2.85468 65.0289 18.4066C59.4737 17.2686 53.4028 11.1997 29.7605 18.0263Z" fill="#00FFF8"/>
<g id="Clip path group_14">
<mask id="mask13_121_226" style="mask-type:luminance" maskUnits="userSpaceOnUse" x="2" y="9" width="88" height="40">
<g id="87cc50ad40">
<path id="Vector_19" d="M2.59479 9.4028H89.7574V48.8517H2.59479V9.4028Z" fill="white"/>
</g>
</mask>
<g mask="url(#mask13_121_226)">
<g id="Group_14">
<path id="Vector (Stroke)_5" d="M10.2043 11.7737C12.6658 9.46498 15.7516 9.38849 19.0596 10.4167C22.1082 11.3644 25.744 13.3573 30.0497 15.9688C41.5866 12.7277 49.0836 12.5147 54.4823 13.3569C57.241 13.7873 59.3919 14.4843 61.1714 15.1282C62.6483 15.6627 63.7074 16.0906 64.6846 16.3675C70.4744 12.7502 74.9745 10.8252 78.5004 10.6049C80.407 10.4857 82.1059 10.8593 83.538 11.7947C84.9493 12.7166 85.9241 14.0682 86.6158 15.6016C87.9622 18.5868 88.438 22.7419 88.709 27.3107C88.8467 29.6321 88.9339 32.1458 89.034 34.7585C89.1346 37.3811 89.2488 40.1196 89.4405 42.9351L85.6548 43.6188C83.4763 36.688 78.2319 30.6624 71.6733 28.2928C65.2676 25.9785 57.2182 27.0156 48.9438 34.9343L47.5737 36.2454L46.2188 34.9194C40.9211 29.7344 35.9529 27.3912 31.5606 26.7414C27.1695 26.0917 23.154 27.1046 19.7039 28.9782C16.2364 30.8612 13.3769 33.5973 11.3902 36.2895C10.3994 37.6323 9.64673 38.9357 9.14839 40.0792C8.63735 41.2519 8.44471 42.1398 8.44471 42.6824C8.44471 44.4578 8.35876 45.7182 8.12256 46.4986C8.05846 46.7103 7.95013 47.005 7.75136 47.292C7.55491 47.5756 7.13481 48.0388 6.41141 48.1862C5.66594 48.3381 5.07756 48.0592 4.76853 47.8485C4.47027 47.645 4.27362 47.4056 4.16439 47.2586C3.77177 46.7299 3.4981 45.9729 3.36346 45.583C3.28018 45.3418 3.21164 45.1219 3.16409 44.9631C3.14015 44.8831 3.12101 44.8171 3.10758 44.7699C3.10087 44.7463 3.09537 44.7273 3.09152 44.7135C3.0896 44.7066 3.0881 44.7009 3.08693 44.6966C3.08634 44.6945 3.08589 44.6925 3.08549 44.691L3.08463 44.6885C3.08455 44.6882 3.08461 44.688 4.53187 44.3103L3.08463 44.6879L3.01923 44.4479V42.5993L3.02668 42.5162C3.80184 33.8841 4.58433 27.2202 5.62654 22.2837C6.64818 17.4447 7.99331 13.8475 10.2043 11.7737ZM17.8863 14.0318C15.284 13.2229 13.9126 13.5496 12.886 14.5125C11.6089 15.7103 10.435 18.2534 9.42206 23.0513C8.76277 26.1741 8.20302 30.0778 7.67419 34.8761C7.85836 34.6071 8.04992 34.3378 8.24849 34.0687C10.513 30.9999 13.7821 27.8563 17.8238 25.6615C21.8828 23.4574 26.7573 22.1943 32.1401 22.9907C37.0994 23.7244 42.3206 26.1809 47.6076 30.9643C56.3513 23.3012 65.3848 21.9776 73.0155 24.7345C77.9135 26.5041 82.0832 29.9032 85.131 34.1108C85.0423 31.7709 84.961 29.5739 84.8398 27.5306C84.5659 22.9132 84.0974 19.411 83.0701 17.1334C82.5749 16.0354 82.0053 15.3541 81.3865 14.9499C80.7885 14.5593 79.9714 14.3136 78.7474 14.3901C76.1551 14.5521 72.1594 16.1279 66.086 19.9963L65.4153 20.4234L64.6319 20.2631C63.0573 19.9405 61.411 19.2592 59.8272 18.686C58.1672 18.0853 56.281 17.4783 53.8724 17.1025C49.0658 16.3527 41.9375 16.4875 30.3087 19.8453L29.4728 20.0867L28.7335 19.6347C24.0621 16.7773 20.5755 14.8677 17.8863 14.0318Z" fill="#1B2B3A"/>
</g>
</g>
</g>
<g id="Clip path group_15">
<mask id="mask14_121_226" style="mask-type:luminance" maskUnits="userSpaceOnUse" x="20" y="33" width="16" height="16">
<g id="8a443cbd2f">
<path id="Vector_20" d="M20.4615 33.8089H35.9156V48.934H20.4615V33.8089Z" fill="white"/>
</g>
</mask>
<g mask="url(#mask14_121_226)">
<g id="Group_15">
<g id="Clip path group_16">
<mask id="mask15_121_226" style="mask-type:luminance" maskUnits="userSpaceOnUse" x="20" y="33" width="16" height="16">
<g id="3f94e53b7c">
<path id="Vector_21" d="M28.1878 33.8089C23.9208 33.8089 20.4615 37.1945 20.4615 41.3707C20.4615 45.5469 23.9208 48.934 28.1878 48.934C32.4548 48.934 35.9156 45.5469 35.9156 41.3707C35.9156 37.1945 32.4548 33.8089 28.1878 33.8089Z" fill="white"/>
</g>
</mask>
<g mask="url(#mask15_121_226)">
<g id="Group_16">
<path id="Vector_22" d="M20.4615 33.8089H35.9156V48.934H20.4615V33.8089Z" fill="#1B2B3A"/>
</g>
</g>
</g>
</g>
</g>
</g>
<g id="Clip path group_17">
<mask id="mask16_121_226" style="mask-type:luminance" maskUnits="userSpaceOnUse" x="57" y="33" width="16" height="16">
<g id="db83bc29a0">
<path id="Vector_23" d="M57.1221 33.8089H72.5761V48.934H57.1221V33.8089Z" fill="white"/>
</g>
</mask>
<g mask="url(#mask16_121_226)">
<g id="Group_17">
<g id="Clip path group_18">
<mask id="mask17_121_226" style="mask-type:luminance" maskUnits="userSpaceOnUse" x="57" y="33" width="16" height="16">
<g id="c0b015c69d">
<path id="Vector_24" d="M64.8499 33.8089C60.5813 33.8089 57.1221 37.1945 57.1221 41.3707C57.1221 45.5469 60.5813 48.934 64.8499 48.934C69.1169 48.934 72.5761 45.5469 72.5761 41.3707C72.5761 37.1945 69.1169 33.8089 64.8499 33.8089Z" fill="white"/>
</g>
</mask>
<g mask="url(#mask17_121_226)">
<g id="Group_18">
<path id="Vector_25" d="M57.1221 33.8089H72.5761V48.934H57.1221V33.8089Z" fill="#1B2B3A"/>
</g>
</g>
</g>
</g>
</g>
</g>
<g id="Clip path group_19">
<mask id="mask18_121_226" style="mask-type:luminance" maskUnits="userSpaceOnUse" x="26" y="36" width="5" height="5">
<g id="d1cb9050b7">
<path id="Vector_26" d="M26.3212 36.5191H30.5913V40.6999H26.3212V36.5191Z" fill="white"/>
</g>
</mask>
<g mask="url(#mask18_121_226)">
<g id="Group_19">
<g id="Clip path group_20">
<mask id="mask19_121_226" style="mask-type:luminance" maskUnits="userSpaceOnUse" x="26" y="36" width="5" height="5">
<g id="c96e0ff071">
<path id="Vector_27" d="M28.4555 36.5191C27.2759 36.5191 26.3212 37.455 26.3212 38.6095C26.3212 39.764 27.2759 40.6999 28.4555 40.6999C29.6351 40.6999 30.5913 39.764 30.5913 38.6095C30.5913 37.455 29.6351 36.5191 28.4555 36.5191Z" fill="white"/>
</g>
</mask>
<g mask="url(#mask19_121_226)">
<g id="Group_20">
<path id="Vector_28" d="M26.3212 36.5191H30.5913V40.6999H26.3212V36.5191Z" fill="white"/>
</g>
</g>
</g>
</g>
</g>
</g>
<g id="Clip path group_21">
<mask id="mask20_121_226" style="mask-type:luminance" maskUnits="userSpaceOnUse" x="62" y="36" width="5" height="5">
<g id="fc29809aef">
<path id="Vector_29" d="M62.7141 36.5191H66.9842V40.6999H62.7141V36.5191Z" fill="white"/>
</g>
</mask>
<g mask="url(#mask20_121_226)">
<g id="Group_21">
<g id="Clip path group_22">
<mask id="mask21_121_226" style="mask-type:luminance" maskUnits="userSpaceOnUse" x="62" y="36" width="5" height="5">
<g id="7ec549e278">
<path id="Vector_30" d="M64.8499 36.5191C63.6703 36.5191 62.7141 37.455 62.7141 38.6095C62.7141 39.764 63.6703 40.6999 64.8499 40.6999C66.0295 40.6999 66.9842 39.764 66.9842 38.6095C66.9842 37.455 66.0295 36.5191 64.8499 36.5191Z" fill="white"/>
</g>
</mask>
<g mask="url(#mask21_121_226)">
<g id="Group_22">
<path id="Vector_31" d="M62.7141 36.5191H66.9842V40.6999H62.7141V36.5191Z" fill="white"/>
</g>
</g>
</g>
</g>
</g>
</g>
<g id="Clip path group_23">
<mask id="mask22_121_226" style="mask-type:luminance" maskUnits="userSpaceOnUse" x="44" y="44" width="7" height="7">
<g id="4359693b1d">
<path id="Vector_32" d="M44.1757 44.5063H50.3429V50.5408H44.1757V44.5063Z" fill="white"/>
</g>
</mask>
<g mask="url(#mask22_121_226)">
<g id="Group_23">
<g id="Clip path group_24">
<mask id="mask23_121_226" style="mask-type:luminance" maskUnits="userSpaceOnUse" x="44" y="44" width="7" height="7">
<g id="9cc11472bc">
<path id="Vector_33" d="M47.2586 44.5063C45.5573 44.5063 44.1757 45.8569 44.1757 47.5235C44.1757 49.1901 45.5573 50.5408 47.2586 50.5408C48.9614 50.5408 50.3429 49.1901 50.3429 47.5235C50.3429 45.8569 48.9614 44.5063 47.2586 44.5063Z" fill="white"/>
</g>
</mask>
<g mask="url(#mask23_121_226)">
<g id="Group_24">
<path id="Vector_34" d="M44.1757 44.5063H50.3429V50.5408H44.1757V44.5063Z" fill="#00FFF8"/>
</g>
</g>
</g>
</g>
</g>
</g>
<g id="Clip path group_25">
<mask id="mask24_121_226" style="mask-type:luminance" maskUnits="userSpaceOnUse" x="42" y="42" width="11" height="14">
<g id="69f775a2b6">
<path id="Vector_35" d="M42.6917 42.35H52.4833V55.6589H42.6917V42.35Z" fill="white"/>
</g>
</mask>
<g mask="url(#mask24_121_226)">
<g id="Group_25">
<g id="Clip path group_26">
<mask id="mask25_121_226" style="mask-type:luminance" maskUnits="userSpaceOnUse" x="42" y="41" width="11" height="16">
<g id="38709d96c8">
<path id="Vector_36" d="M42.0919 47.1626V50.704C42.0919 52.1115 42.6641 53.4637 43.6815 54.4595C44.699 55.4552 46.079 56.0152 47.5186 56.0152C48.9583 56.0152 50.3383 55.4552 51.3558 54.4595C52.3732 53.4637 52.9454 52.1115 52.9454 50.704V47.1626C52.9454 45.7551 52.3732 44.4044 51.3558 43.4072C50.3383 42.4114 48.9583 41.8529 47.5186 41.8529C46.079 41.8529 44.699 42.4114 43.6815 43.4072C42.6641 44.4044 42.0919 45.7551 42.0919 47.1626Z" fill="white"/>
</g>
</mask>
<g mask="url(#mask25_121_226)">
<g id="Group_26">
<g id="Clip path group_27">
<mask id="mask26_121_226" style="mask-type:luminance" maskUnits="userSpaceOnUse" x="42" y="42" width="11" height="14">
<g id="247f253de9">
<path id="Vector_37" d="M47.5186 42.4444C48.7977 42.4444 50.0232 42.9415 50.9274 43.8264C51.8315 44.7114 52.341 45.9108 52.341 47.1626V50.704C52.341 51.9558 51.8315 53.1552 50.9274 54.0402C50.0232 54.9251 48.7977 55.4223 47.5186 55.4223C46.2396 55.4223 45.0126 54.9251 44.1084 54.0402C43.2042 53.1552 42.6962 51.9558 42.6962 50.704V47.1626C42.6962 45.9108 43.2042 44.7114 44.1084 43.8264C45.0126 42.9415 46.2396 42.4444 47.5186 42.4444Z" fill="white"/>
</g>
</mask>
<g mask="url(#mask26_121_226)">
<g id="Group_27">
<path id="Vector_38" d="M47.5156 41.8544C44.5261 41.8544 42.0919 44.2352 42.0919 47.1627C42.0919 50.0227 47.1316 55.6933 47.3458 55.9359C47.3886 55.9823 47.4513 56.0123 47.5156 56.0123C47.5814 56.0123 47.6441 55.9853 47.6854 55.9359C47.9011 55.6963 52.9408 50.0227 52.9408 47.1627C52.9408 44.2352 50.5066 41.8544 47.5156 41.8544ZM45.4823 46.941C45.4823 45.8434 46.3957 44.951 47.5156 44.951C48.637 44.951 49.5504 45.8434 49.5504 46.941C49.5504 48.0386 48.637 48.9311 47.5156 48.9311C46.3957 48.9311 45.4823 48.0386 45.4823 46.941Z" fill="#1B2B3A"/>
</g>
</g>
</g>
</g>
</g>
</g>
</g>
</g>
</g>
<g id="Clip path group_28">
<mask id="mask27_121_226" style="mask-type:luminance" maskUnits="userSpaceOnUse" x="42" y="41" width="12" height="16">
<g id="3ddd0b2040">
<path id="Vector_39" d="M42.0919 41.8529H53.1718V56.15H42.0919V41.8529Z" fill="white"/>
</g>
</mask>
<g mask="url(#mask27_121_226)">
<g id="Group_28">
<g id="Clip path group_29">
<mask id="mask28_121_226" style="mask-type:luminance" maskUnits="userSpaceOnUse" x="42" y="41" width="11" height="16">
<g id="f1bf4baaaa">
<path id="Vector_40" d="M42.0919 47.1626V50.704C42.0919 52.1115 42.6641 53.4637 43.6815 54.4595C44.699 55.4552 46.079 56.0152 47.5186 56.0152C48.9583 56.0152 50.3383 55.4552 51.3558 54.4595C52.3732 53.4637 52.9454 52.1115 52.9454 50.704V47.1626C52.9454 45.7551 52.3732 44.4044 51.3558 43.4072C50.3383 42.4114 48.9583 41.8529 47.5186 41.8529C46.079 41.8529 44.699 42.4114 43.6815 43.4072C42.6641 44.4044 42.0919 45.7551 42.0919 47.1626Z" fill="white"/>
</g>
</mask>
<g mask="url(#mask28_121_226)">
<g id="Group_29">
<g id="Clip path group_30">
<mask id="mask29_121_226" style="mask-type:luminance" maskUnits="userSpaceOnUse" x="42" y="41" width="11" height="16">
<g id="4d1e37f1d0">
<path id="Vector_41" d="M42.0919 47.1626V50.7025C42.0919 52.1115 42.6641 53.4622 43.6815 54.458C44.6974 55.4537 46.0774 56.0137 47.5156 56.0137C48.9553 56.0137 50.3337 55.4537 51.3512 54.458C52.3686 53.4622 52.9408 52.1115 52.9408 50.7025V47.1626C52.9408 45.7536 52.3686 44.4029 51.3512 43.4072C50.3337 42.4114 48.9553 41.8529 47.5156 41.8529C46.0774 41.8529 44.6974 42.4114 43.6815 43.4072C42.6641 44.4029 42.0919 45.7536 42.0919 47.1626Z" fill="white"/>
</g>
</mask>
<g mask="url(#mask29_121_226)">
<g id="Group_30">
<path id="Vector (Stroke)_6" d="M20.1008 48.9326C20.5379 55.4223 23.3666 61.5557 28.0874 66.1761C28.6911 66.7669 29.3204 67.3268 29.9718 67.8559L43.6814 54.4579L29.983 67.8649C34.8958 71.8503 41.0941 74.0529 47.5157 74.0529C54.7801 74.0528 61.7774 71.2343 66.9496 66.1713L66.9453 66.1761C71.6661 61.5557 74.4946 55.4223 74.9316 48.9326C74.4951 42.4508 71.6729 36.3248 66.9625 31.7064L66.9628 31.7061C66.9596 31.703 66.9563 31.7 66.9531 31.6969L66.9453 31.689L66.9493 31.6935C61.8746 26.726 55.0219 23.903 47.8573 23.8159L47.5157 23.8136C41.0756 23.8136 34.8827 26.0263 29.9833 30.0002L43.6814 43.4072L29.9718 30.0095C29.4068 30.4683 28.8585 30.9498 28.3295 31.4549L28.0874 31.689C23.3666 36.3094 20.5379 42.4428 20.1008 48.9326ZM85.8409 50.7025C85.8409 60.6577 81.7978 70.1968 74.615 77.2269C67.4391 84.2501 57.6971 88.2136 47.5157 88.2136C37.3533 88.2136 27.6048 84.2619 20.4181 77.2266L20.4178 77.2269C20.4151 77.2242 20.4125 77.2214 20.4098 77.2187C20.4067 77.2157 20.4034 77.2128 20.4003 77.2098L20.4006 77.2095C13.3407 70.2909 9.31881 60.9471 9.19476 51.1688L9.19189 50.7025V47.1626C9.19189 37.2155 13.2286 27.6841 20.4006 20.6556L20.4003 20.6554C20.4034 20.6523 20.4067 20.6494 20.4098 20.6464C20.4125 20.6437 20.4151 20.6409 20.4178 20.6382L20.4181 20.6385C27.6216 13.5868 37.3771 9.65286 47.5157 9.65286L47.9913 9.65567C57.8187 9.77489 67.231 13.5847 74.2759 20.3106L74.615 20.6382L74.9494 20.9698C81.9232 27.9667 85.8409 37.363 85.8409 47.1626V50.7025Z" fill="black"/>
</g>
</g>
</g>
</g>
</g>
</g>
</g>
</g>
</g>
<g id="Clip path group_31">
<mask id="mask30_121_226" style="mask-type:luminance" maskUnits="userSpaceOnUse" x="44" y="44" width="7" height="9">
<g id="2eb29e8f7d">
<path id="Vector_42" d="M44.6806 44.65H50.525V52.3167H44.6806V44.65Z" fill="white"/>
</g>
</mask>
<g mask="url(#mask30_121_226)">
<g id="Group_31">
<g id="Clip path group_32">
<mask id="mask31_121_226" style="mask-type:luminance" maskUnits="userSpaceOnUse" x="44" y="44" width="7" height="9">
<g id="76f70defe6">
<path id="Vector_43" d="M44.1757 47.4187V49.6004C44.1757 50.4674 44.5291 51.2999 45.1549 51.9124C45.7822 52.5263 46.6328 52.8707 47.5187 52.8707C48.4045 52.8707 49.2551 52.5263 49.8824 51.9124C50.5082 51.2999 50.8601 50.4674 50.8601 49.6004V47.4187C50.8601 46.5517 50.5082 45.7191 49.8824 45.1067C49.2551 44.4928 48.4045 44.1484 47.5187 44.1484C46.6328 44.1484 45.7822 44.4928 45.1549 45.1067C44.5291 45.7191 44.1757 46.5517 44.1757 47.4187Z" fill="white"/>
</g>
</mask>
<g mask="url(#mask31_121_226)">
<g id="Group_32">
<g id="Clip path group_33">
<mask id="mask32_121_226" style="mask-type:luminance" maskUnits="userSpaceOnUse" x="44" y="44" width="7" height="9">
<g id="4350ac0c8f">
<path id="Vector_44" d="M47.5186 44.7398C48.2438 44.7398 48.9415 45.0228 49.454 45.5245C49.9681 46.0276 50.2557 46.7089 50.2557 47.4187V49.6004C50.2557 50.3102 49.9681 50.9915 49.454 51.4946C48.9415 51.9977 48.2438 52.2792 47.5186 52.2792C46.7919 52.2792 46.0958 51.9977 45.5832 51.4946C45.0692 50.9915 44.7816 50.3102 44.7816 49.6004V47.4187C44.7816 46.7089 45.0692 46.0276 45.5832 45.5245C46.0958 45.0228 46.7919 44.7398 47.5186 44.7398Z" fill="white"/>
</g>
</mask>
<g mask="url(#mask32_121_226)">
<g id="Group_33">
<path id="Vector_45" d="M47.4513 44.1484C45.646 44.1484 44.1772 45.5859 44.1772 47.3528C44.1772 49.0793 47.2188 52.5038 47.3488 52.6491C47.3733 52.6775 47.4116 52.6955 47.4513 52.6955C47.4911 52.6955 47.5278 52.679 47.5538 52.6491C47.6839 52.5053 50.7254 49.0793 50.7254 47.3528C50.7254 45.5859 49.2567 44.1484 47.4513 44.1484ZM46.2228 47.2195C46.2228 46.5562 46.7736 46.0171 47.4513 46.0171C48.1276 46.0171 48.6784 46.5562 48.6784 47.2195C48.6784 47.8814 48.1276 48.4204 47.4513 48.4204C46.7736 48.4204 46.2228 47.8814 46.2228 47.2195Z" fill="#00FFF8"/>
</g>
</g>
</g>
</g>
</g>
</g>
</g>
</g>
</g>
<g id="Clip path group_34">
<mask id="mask33_121_226" style="mask-type:luminance" maskUnits="userSpaceOnUse" x="44" y="44" width="7" height="9">
<g id="c97d66ef5a">
<path id="Vector_46" d="M44.1757 44.1484H50.7254V52.7H44.1757V44.1484Z" fill="white"/>
</g>
</mask>
<g mask="url(#mask33_121_226)">
<g id="Group_34">
<g id="Clip path group_35">
<mask id="mask34_121_226" style="mask-type:luminance" maskUnits="userSpaceOnUse" x="44" y="44" width="7" height="9">
<g id="af6129d122">
<path id="Vector_47" d="M44.1757 47.4187V49.6004C44.1757 50.4674 44.5291 51.2999 45.1549 51.9124C45.7822 52.5263 46.6328 52.8707 47.5187 52.8707C48.4045 52.8707 49.2551 52.5263 49.8824 51.9124C50.5082 51.2999 50.8601 50.4674 50.8601 49.6004V47.4187C50.8601 46.5517 50.5082 45.7191 49.8824 45.1067C49.2551 44.4928 48.4045 44.1484 47.5187 44.1484C46.6328 44.1484 45.7822 44.4928 45.1549 45.1067C44.5291 45.7191 44.1757 46.5517 44.1757 47.4187Z" fill="white"/>
</g>
</mask>
<g mask="url(#mask34_121_226)">
<g id="Group_35">
<g id="Clip path group_36">
<mask id="mask35_121_226" style="mask-type:luminance" maskUnits="userSpaceOnUse" x="44" y="44" width="7" height="9">
<g id="68579f79af">
<path id="Vector_48" d="M44.1757 47.3528V49.4896C44.1757 50.3401 44.5215 51.1562 45.135 51.7566C45.75 52.3571 46.5823 52.6955 47.4513 52.6955C48.3203 52.6955 49.1526 52.3571 49.7661 51.7566C50.3812 51.1562 50.7254 50.3401 50.7254 49.4896V47.3528C50.7254 46.5038 50.3812 45.6877 49.7661 45.0872C49.1526 44.4853 48.3203 44.1484 47.4513 44.1484C46.5823 44.1484 45.75 44.4853 45.135 45.0872C44.5215 45.6877 44.1757 46.5038 44.1757 47.3528Z" fill="white"/>
</g>
</mask>
<g mask="url(#mask35_121_226)">
<g id="Group_36">
<path id="Vector (Stroke)_7" d="M45.135 51.7567L47.4506 49.4845L47.4535 49.4873L45.135 51.7567ZM47.4506 49.4845L67.9047 29.416C67.556 29.0756 67.1988 28.745 66.8344 28.4238L49.7662 45.0872L66.7896 28.3844C61.6029 23.831 54.8708 21.2284 47.8123 21.1425L47.4515 21.1402C39.757 21.1402 32.3996 24.1347 26.981 29.4314C21.7708 34.5259 18.7785 41.3244 18.505 48.4216C18.7787 55.5209 21.7712 62.3119 26.9684 67.3999C32.4218 72.7358 39.7987 75.7037 47.4515 75.7037C54.5995 75.7037 61.4848 73.1157 66.7896 68.4592L49.7662 51.7567L66.812 68.4396C67.105 68.1819 67.3935 67.9181 67.6766 67.6478L67.9331 67.4002C73.102 62.3413 76.1221 55.5603 76.3962 48.4185C76.121 41.287 73.1057 34.5064 67.9331 29.4438L47.4535 49.4873L47.4506 49.4845ZM82.9665 49.4896C82.9665 58.6649 79.2571 67.5199 72.5639 74.0691L72.5642 74.0694C72.5599 74.0736 72.5553 74.0776 72.551 74.0818C72.5458 74.0868 72.541 74.0922 72.5358 74.0972L72.5355 74.0969C65.8915 80.585 56.8765 84.2507 47.4515 84.2507C38.006 84.2507 28.9965 80.5711 22.3654 74.0972L22.337 74.0694C15.679 67.553 11.9344 58.7116 11.9344 49.4896V47.3527C11.9344 38.1244 15.6846 29.2851 22.337 22.7743L22.6514 22.4705C29.2872 16.1352 38.1873 12.593 47.4515 12.593L47.8918 12.5958C57.1112 12.7076 65.9625 16.3266 72.5355 22.7467L72.5358 22.7465C72.5452 22.7557 72.5545 22.7651 72.5639 22.7743C72.5734 22.7836 72.5831 22.7927 72.5926 22.8021L72.5923 22.8023C79.262 29.3433 82.9665 38.184 82.9665 47.3527V49.4896Z" fill="black"/>
</g>
</g>
</g>
</g>
</g>
</g>
</g>
</g>
</g>
</g>
</g>
</g>
</g>
</svg>
